<svg xmlns="http://www.w3.org/2000/svg" width="40" height="40" viewBox="0 0 40 40" fill="none">
  <rect width="40" height="40" rx="20" fill="#262626"/>
  <path d="M20 16.3333V21.2222M20 24.8889V24.9011M9 20C9 21.4445 9.28452 22.8749 9.83733 24.2095C10.3901 25.5441 11.2004 26.7567 12.2218 27.7782C13.2433 28.7996 14.4559 29.6099 15.7905 30.1627C17.1251 30.7155 18.5555 31 20 31C21.4445 31 22.8749 30.7155 24.2095 30.1627C25.5441 29.6099 26.7567 28.7996 27.7782 27.7782C28.7996 26.7567 29.6099 25.5441 30.1627 24.2095C30.7155 22.8749 31 21.4445 31 20C31 18.5555 30.7155 17.1251 30.1627 15.7905C29.6099 14.4559 28.7996 13.2433 27.7782 12.2218C26.7567 11.2004 25.5441 10.3901 24.2095 9.83733C22.8749 9.28452 21.4445 9 20 9C18.5555 9 17.1251 9.28452 15.7905 9.83733C14.4559 10.3901 13.2433 11.2004 12.2218 12.2218C11.2004 13.2433 10.3901 14.4559 9.83733 15.7905C9.28452 17.1251 9 18.5555 9 20Z" stroke="#F2E2C4" stroke-width="2.5" stroke-linecap="round" stroke-linejoin="round"/>
</svg>