<svg xmlns="http://www.w3.org/2000/svg" width="15" height="15" viewBox="0 0 15 15" fill="none">
  <g clip-path="url(#clip0_2214_5871)">
    <path d="M7.5 0.9375C3.8748 0.9375 0.9375 3.8748 0.9375 7.5C0.9375 11.1252 3.8748 14.0625 7.5 14.0625C11.1252 14.0625 14.0625 11.1252 14.0625 7.5C14.0625 3.8748 11.1252 0.9375 7.5 0.9375ZM5.00977 10.3679C4.96949 10.4366 4.91185 10.4934 4.84263 10.5328C4.77341 10.5721 4.69505 10.5925 4.61543 10.592C4.53428 10.5927 4.45455 10.5708 4.38516 10.5287C4.33349 10.4988 4.28825 10.4589 4.25202 10.4115C4.2158 10.364 4.1893 10.3098 4.17406 10.2521C4.15882 10.1944 4.15512 10.1342 4.16319 10.075C4.17127 10.0159 4.19094 9.95887 4.22109 9.90732L4.66904 9.1626C4.69168 9.12416 4.72398 9.09231 4.76273 9.07021C4.80148 9.04811 4.84533 9.03653 4.88994 9.03662H4.95615C5.28105 9.03662 5.5084 9.23203 5.57461 9.42129L5.00977 10.3679ZM8.80225 8.90303L5.86875 8.90625H3.91904C3.8577 8.90651 3.79694 8.89431 3.74046 8.87038C3.68398 8.84645 3.63294 8.8113 3.59045 8.76706C3.54796 8.72281 3.5149 8.6704 3.49327 8.61299C3.47165 8.55559 3.46191 8.49439 3.46465 8.43311C3.47402 8.18701 3.68877 8.00068 3.9334 8.00068H5.34668L7.02217 5.14863L6.47959 4.22432C6.35742 4.01367 6.41162 3.73594 6.62109 3.60352C6.67274 3.57012 6.7306 3.54751 6.7912 3.53704C6.85181 3.52658 6.9139 3.52848 6.97375 3.54263C7.0336 3.55678 7.08998 3.58288 7.13948 3.61937C7.18898 3.65587 7.2306 3.70199 7.26182 3.75498L7.55186 4.25039H7.55508L7.84541 3.75498C7.87667 3.70227 7.91821 3.65639 7.96758 3.62008C8.01695 3.58377 8.07312 3.55777 8.13275 3.54364C8.19238 3.5295 8.25424 3.52752 8.31465 3.53781C8.37506 3.54809 8.43279 3.57044 8.48438 3.60352C8.69268 3.73594 8.74629 4.01367 8.62324 4.2252L8.08066 5.14951L7.55332 6.04863L6.40811 8.00156V8.00479H8.0959C8.30742 8.00479 8.57256 8.11846 8.67978 8.30127L8.68916 8.32031C8.78379 8.48115 8.8374 8.5916 8.8374 8.75244C8.83586 8.80467 8.82422 8.8561 8.80313 8.90391L8.80225 8.90303ZM11.0801 8.90625H10.2858V8.90947L10.8665 9.89707C10.929 10.0011 10.9481 10.1255 10.9197 10.2434C10.8914 10.3614 10.8179 10.4635 10.715 10.5278C10.6437 10.5713 10.5618 10.5943 10.4783 10.5943C10.3989 10.5943 10.3209 10.5737 10.2518 10.5346C10.1827 10.4955 10.1249 10.4392 10.084 10.3711L9.22588 8.91035L8.69268 8.00215L8.00479 6.82617C7.90515 6.65826 7.85099 6.46728 7.84766 6.27206C7.84432 6.07684 7.89191 5.88411 7.98574 5.71289C8.12168 5.47295 8.22568 5.40996 8.22568 5.40996L9.75586 7.99805H11.0716C11.3177 7.99805 11.5289 8.1873 11.5403 8.43018C11.5427 8.49192 11.5326 8.55351 11.5105 8.61124C11.4885 8.66897 11.455 8.72166 11.4121 8.76612C11.3692 8.81059 11.3178 8.84593 11.2608 8.87001C11.2039 8.89409 11.1427 8.90641 11.081 8.90625H11.0801Z" fill="#262626"/>
  </g>
  <defs>
    <clipPath id="clip0_2214_5871">
      <rect width="15" height="15" fill="white"/>
    </clipPath>
  </defs>
</svg>