<svg xmlns="http://www.w3.org/2000/svg" width="84" height="84" viewBox="0 0 84 84" fill="none">
  <rect x="2" y="2" width="80" height="80" rx="10" fill="#262626"/>
  <rect x="2" y="2" width="80" height="80" rx="10" stroke="#D9BC85" stroke-width="3"/>
  <path d="M24.4142 40.0858C23.6332 39.3047 22.3668 39.3047 21.5858 40.0858C20.8047 40.8668 20.8047 42.1332 21.5858 42.9142L24.4142 40.0858ZM35.5 54L34.0858 55.4142C34.8668 56.1953 36.1332 56.1953 36.9142 55.4142L35.5 54ZM61.9142 30.4142C62.6953 29.6332 62.6953 28.3668 61.9142 27.5858C61.1332 26.8047 59.8668 26.8047 59.0858 27.5858L61.9142 30.4142ZM21.5858 42.9142L34.0858 55.4142L36.9142 52.5858L24.4142 40.0858L21.5858 42.9142ZM36.9142 55.4142L61.9142 30.4142L59.0858 27.5858L34.0858 52.5858L36.9142 55.4142Z" fill="#D9BC85"/>
</svg>