<svg xmlns="http://www.w3.org/2000/svg" width="40" height="40" viewBox="0 0 40 40" fill="none">
  <rect width="40" height="40" rx="20" fill="#262626"/>
  <path d="M20.0001 6.66669C27.3641 6.66669 33.3334 12.636 33.3334 20C33.3334 23.5362 31.9287 26.9276 29.4282 29.4281C26.9277 31.9286 23.5363 33.3334 20.0001 33.3334C16.4639 33.3334 13.0725 31.9286 10.572 29.4281C8.07151 26.9276 6.66675 23.5362 6.66675 20C6.66675 12.636 12.6361 6.66669 20.0001 6.66669ZM22.6667 13.3334C21.6866 13.3332 20.7405 13.6929 20.008 14.3443C19.2756 14.9956 18.8078 15.8932 18.6934 16.8667L18.6734 17.0987L18.6667 17.3334L18.6734 17.568C18.6987 17.9934 18.7894 18.4 18.9361 18.7787L19.0561 19.0574L14.3894 23.724L14.2801 23.8494C14.0987 24.0832 14.0002 24.3707 14.0002 24.6667C14.0002 24.9626 14.0987 25.2502 14.2801 25.484L14.3907 25.6094L16.3907 27.6094L16.5161 27.72C16.7499 27.9014 17.0375 27.9999 17.3334 27.9999C17.6294 27.9999 17.9169 27.9014 18.1507 27.72L18.2761 27.6094L18.3867 27.484C18.5682 27.2502 18.6666 26.9626 18.6666 26.6667C18.6666 26.3707 18.5682 26.0832 18.3867 25.8494L18.2761 25.724L17.2201 24.6667L18.0001 23.8867L19.0574 24.9427L19.1827 25.0534C19.4393 25.2522 19.7596 25.3507 20.0835 25.3302C20.4075 25.3098 20.7129 25.1719 20.9424 24.9423C21.1719 24.7128 21.3098 24.4074 21.3303 24.0835C21.3507 23.7595 21.2523 23.4392 21.0534 23.1827L20.9427 23.0574L19.8867 22L20.9427 20.944C21.4845 21.2023 22.0774 21.3353 22.6775 21.3333C23.2777 21.3313 23.8697 21.1943 24.4097 20.9324C24.9497 20.6705 25.4238 20.2904 25.7969 19.8204C26.1701 19.3504 26.4327 18.8024 26.5653 18.2171C26.6979 17.6317 26.697 17.0241 26.5629 16.4391C26.4287 15.8542 26.1646 15.3069 25.7902 14.8379C25.4158 14.3688 24.9406 13.9901 24.4 13.7296C23.8593 13.4692 23.2669 13.3338 22.6667 13.3334ZM22.6667 16C23.0204 16 23.3595 16.1405 23.6096 16.3905C23.8596 16.6406 24.0001 16.9797 24.0001 17.3334C24.0001 17.687 23.8596 18.0261 23.6096 18.2762C23.3595 18.5262 23.0204 18.6667 22.6667 18.6667C22.3131 18.6667 21.974 18.5262 21.7239 18.2762C21.4739 18.0261 21.3334 17.687 21.3334 17.3334C21.3334 16.9797 21.4739 16.6406 21.7239 16.3905C21.974 16.1405 22.3131 16 22.6667 16Z" fill="#F2E2C4"/>
</svg>