<svg xmlns="http://www.w3.org/2000/svg" width="37" height="20" viewBox="0 0 37 20" fill="none">
  <path d="M19.3568 15.9083C18.5787 15.6852 17.9659 15.3775 17.5196 14.9867C17.0732 14.5946 16.8271 13.9613 16.7789 13.0879C16.4916 13.7181 16.198 14.3454 15.8982 14.9698C15.6208 15.5488 15.1901 16.2558 14.6062 17.093C14.4012 17.4042 14.0755 17.6189 13.6315 17.7371C13.1885 17.8549 12.7272 17.8876 12.272 17.8336C11.8272 17.7857 11.3967 17.6483 11.0065 17.4295C10.6241 17.2124 10.3913 16.9253 10.3105 16.567C10.2224 16.1641 10.1838 15.6369 10.1947 14.9855C10.2308 13.4909 10.38 12.0013 10.641 10.5293C10.7809 9.74031 10.9293 9.00323 11.0849 8.31682C11.2406 7.63041 11.3962 7.04896 11.5506 6.57125C11.7062 6.09354 11.8522 5.77506 11.9885 5.61341C12.1212 5.43005 12.348 5.32872 12.6701 5.31183C12.9922 5.29494 13.3058 5.33113 13.611 5.4204C13.915 5.51087 14.1659 5.63875 14.3674 5.80402C14.5676 5.96808 14.6364 6.13697 14.5713 6.31068C14.441 6.65569 14.2793 7.23353 14.0851 8.04178C13.8797 8.90224 13.6947 9.76742 13.5302 10.6366C13.3612 11.5151 13.2136 12.3976 13.0875 13.2833C12.9668 14.1266 12.927 14.7418 12.9668 15.129C13.0766 15.0892 13.2358 14.889 13.4445 14.5307C13.6532 14.1724 13.8909 13.6983 14.1551 13.1108C14.4205 12.5233 14.6991 11.8454 14.9923 11.0793C15.2866 10.3121 15.5918 9.50386 15.9067 8.65219C16.2203 7.80172 16.5219 6.93436 16.809 6.05373C17.0961 5.1731 17.3567 4.30695 17.5907 3.45648C17.6788 3.14042 17.8984 2.95464 18.2482 2.89794C18.598 2.84124 18.9563 2.86537 19.3218 2.96912C19.6861 3.07165 19.9974 3.23692 20.2531 3.46251C20.5101 3.68689 20.6102 3.90885 20.5523 4.126C19.9105 6.50852 19.4871 9.27828 19.4183 11.744C19.3858 12.9395 19.4654 14.1471 20.0287 15.2267L20.0444 15.2557C20.153 15.4463 20.2664 15.5669 20.4268 15.7129C20.0842 15.9385 19.7573 16.0085 19.3568 15.9083ZM24.9132 13.0445C25.3716 12.2338 25.6286 11.235 25.7758 10.3905L25.7818 10.3604C25.8892 9.73427 25.9688 9.10336 26.0653 8.47606L26.1811 7.76311C26.2173 7.55562 26.3717 7.4374 26.6154 7.40121C26.8603 7.36623 27.1184 7.38553 27.391 7.45912C27.6637 7.5315 27.9074 7.64972 28.1245 7.81257C28.3416 7.97422 28.4418 8.13828 28.4285 8.30114C28.366 8.90818 28.2551 9.50924 28.0968 10.0986C27.9238 10.7661 27.7283 11.4276 27.5105 12.0818C27.2017 13.0168 26.8267 13.9287 26.3886 14.8106C26.2364 15.119 26.0038 15.3807 25.7154 15.5681C25.6835 15.5419 25.6521 15.5149 25.6213 15.4873C25.543 15.4177 25.4741 15.3382 25.4163 15.2509C25.3435 15.1438 25.2805 15.0303 25.2281 14.9119C25.1603 14.7581 25.1051 14.5992 25.0628 14.4366C25.0229 14.2778 24.9931 14.1166 24.9735 13.9541C24.934 13.6525 24.9139 13.3486 24.9132 13.0445Z" fill="#262626"/>
  <path d="M21.9557 3.39858C22.1692 3.05839 22.3478 2.98843 22.741 3.07166C22.9944 3.12836 23.2151 3.23573 23.4769 3.28881C23.7182 3.33826 24.5325 3.4975 24.6615 3.68569L24.6676 3.69896C24.6893 3.80753 24.5349 3.9921 24.4733 4.08619C23.3141 5.88123 22.811 8.42661 22.5987 10.5305C22.5022 11.5112 22.4624 12.6536 22.7628 13.6006C22.8954 14.0132 23.1524 14.2581 23.606 14.2448C23.8979 14.2363 24.0813 14.0759 24.2815 13.8829L24.3057 13.86C24.3419 13.8274 24.3732 13.7924 24.4058 13.7562L24.4094 13.8202C24.4166 13.9311 24.4227 14.0047 24.4323 14.0807C24.442 14.1591 24.4528 14.2388 24.477 14.3534C24.5862 14.8763 24.7746 15.3795 25.0355 15.8456L25.056 15.877C23.7966 16.292 22.3357 16.1424 21.2343 15.3824C20.1884 14.6586 20.0714 13.5246 20.0376 12.352C19.9845 10.1529 20.5009 7.31919 21.1692 5.22257C21.3706 4.59406 21.6131 3.96315 21.9557 3.39858ZM26.7642 6.3131C26.7642 6.48802 26.8402 6.64243 26.9898 6.77634C27.1406 6.91024 27.3143 7.01398 27.5121 7.08516C27.7087 7.15754 27.903 7.1877 28.096 7.17925C28.2878 7.17081 28.4181 7.10446 28.488 6.98262C28.6075 6.76548 28.716 6.52662 28.815 6.26243C29.049 5.64314 29.2266 5.00401 29.3458 4.3528C29.3578 4.16461 29.2529 3.98245 29.0345 3.80874C28.8139 3.6329 28.5598 3.50362 28.2878 3.42874C28.0335 3.35224 27.7659 3.33005 27.5025 3.3636C27.2576 3.39979 27.1249 3.5168 27.1044 3.72067C27.0751 3.89178 27.0498 4.06353 27.0284 4.23578L26.9343 4.95114C26.9018 5.19538 26.8712 5.43987 26.8426 5.6846C26.8186 5.89396 26.7925 6.10307 26.7642 6.31189" fill="#262626"/>
  <path d="M30.0103 3.82952C30.0211 3.81987 30.038 3.82228 30.0585 3.8259L31.1647 3.98635L31.6364 4.0539L31.64 4.03942L31.6436 4.02495L31.6461 4.00927L31.6497 3.99358L31.6533 3.97911L31.6569 3.96342L31.6605 3.94895L31.6629 3.93327L31.6666 3.91879L31.6702 3.90431L31.6726 3.88863L31.6762 3.87416L31.6798 3.85968L31.6835 3.844L31.6859 3.82952L31.6895 3.81505L31.6931 3.80057L31.6967 3.78489L31.6991 3.77041L31.7028 3.75594L31.7064 3.74146L31.71 3.72698L31.7124 3.71251L31.716 3.69803L31.7196 3.68355L31.7221 3.66908L31.7257 3.6546L31.7293 3.64133L31.7329 3.62686L31.7365 3.61238L31.7389 3.59911L31.7426 3.58463L31.745 3.57016L31.7486 3.55689L31.7522 3.54241L31.7558 3.52914L31.7582 3.51587L31.7619 3.5014L31.7655 3.48813L31.7679 3.47365L31.7715 3.46159L31.7751 3.44711L31.7788 3.43384L31.7812 3.42178V3.42057L31.7848 3.40851L31.7884 3.39403L31.7908 3.38197L31.7944 3.3687L31.7981 3.35543L31.8005 3.34216L31.8041 3.3301L31.8077 3.31683L31.8113 3.30476L31.8137 3.2927L31.8174 3.27943L31.821 3.26737L31.8234 3.2553L31.827 3.24203L31.8294 3.22997L31.833 3.21791L31.8367 3.20584L31.8391 3.19378L31.8427 3.18172L31.8463 3.16965C31.9308 2.856 32.0152 2.63886 32.1153 2.53874C32.2167 2.43861 32.3361 2.45429 32.5074 2.49893C32.6787 2.54356 32.9019 2.61715 32.9718 2.73658C33.0418 2.85721 32.9598 3.02127 32.8512 3.31079L32.8476 3.32286L32.8428 3.33251L32.8391 3.34457L32.8355 3.35664L32.8307 3.36749L32.8271 3.37956L32.8222 3.39041L32.8186 3.40248L32.8138 3.41454L32.8102 3.4266L32.8054 3.43867L32.8005 3.45073L32.7969 3.46279L32.7921 3.47486L32.7873 3.48692L32.7836 3.50019L32.7788 3.51225L32.774 3.52552L32.7704 3.53879L32.7655 3.55086L32.7607 3.56533L32.7559 3.5774L32.7523 3.59067L32.7474 3.60394L32.7426 3.61841L32.7378 3.63048L32.733 3.64495L32.7294 3.65822L32.7245 3.6727L32.7197 3.68597L32.7149 3.70044L32.7101 3.71371L32.7052 3.72819L32.7004 3.74146L32.6968 3.75594L32.6908 3.77041L32.6871 3.78489L32.6823 3.79936L32.6775 3.81384L32.6727 3.82831L32.6678 3.84279L32.663 3.85727L32.657 3.87174L32.6521 3.88622L32.6485 3.9019L32.6425 3.91638L32.6389 3.93085L32.6328 3.94533L32.628 3.95981L32.6232 3.97549L32.6184 3.99117L32.6135 4.00565L32.6087 4.02133L32.6039 4.03581L32.5991 4.05149L32.5942 4.06596L32.5894 4.08165L32.5834 4.09733L32.5786 4.11181L32.5737 4.12749L32.5689 4.14317L32.5641 4.15885L32.5593 4.17333L32.5544 4.18901L33.1214 4.27345C33.1914 3.95619 33.2613 3.65098 33.3277 3.4061C33.4146 3.09124 33.4966 2.87531 33.5967 2.77397C33.698 2.67385 33.8175 2.68953 33.9888 2.73416C34.1601 2.7788 34.3832 2.85238 34.4532 2.97181C34.5232 3.09245 34.4412 3.25772 34.3326 3.54603C34.2469 3.77765 34.1444 4.08888 34.0394 4.4146C34.5582 4.49663 35.0407 4.57504 35.4123 4.6438C36.51 4.84526 36.6186 4.94539 36.5583 5.15408C36.4968 5.36519 36.2651 5.68487 35.8465 6.09503C35.4291 6.50519 34.8248 7.0034 34.0008 7.98778C33.0804 9.10513 32.2426 10.2881 31.4941 11.5272C30.8559 12.6129 30.6231 13.3174 30.5254 13.6624C30.4264 14.0086 30.4626 13.9954 31.0163 14.0207C31.5701 14.0448 32.6389 14.11 33.1878 14.198C33.7366 14.2861 33.7632 14.3983 33.7752 14.7047C33.7873 15.0111 33.7837 15.5117 33.7415 15.7904C33.6992 16.0691 33.6172 16.127 33.1178 16.1233C32.6189 16.1115 32.1205 16.0849 31.6231 16.0437C31.6388 16.3887 31.6557 16.7169 31.6774 16.9642C31.7052 17.2718 31.7402 17.4539 31.6412 17.5504C31.5423 17.647 31.3083 17.659 31.131 17.6566C30.9536 17.6542 30.8342 17.6385 30.763 17.5143C30.6918 17.3912 30.6701 17.1608 30.6701 16.8339C30.6701 16.5878 30.6834 16.2862 30.7003 15.9701H30.6846L30.1333 15.9219C30.149 16.25 30.1647 16.5624 30.1864 16.8001C30.2141 17.1077 30.2491 17.2887 30.1502 17.3864C30.0513 17.4829 29.816 17.495 29.6399 17.4925C29.4626 17.4901 29.3432 17.4744 29.272 17.3502C29.2008 17.2271 29.1791 16.9967 29.1791 16.6698C29.1791 16.431 29.1912 16.1414 29.2068 15.8374C28.7195 15.7904 28.29 15.7482 28.0053 15.7168C27.4492 15.6577 27.4468 15.6468 27.4625 15.4164C27.4794 15.1872 27.5143 14.7385 27.647 14.1425C27.7797 13.5478 28.0126 12.8035 28.4963 11.7914C28.9788 10.7793 29.7147 9.49932 30.4687 8.51374C31.2238 7.52937 31.9983 6.84296 32.3855 6.49915C32.7728 6.15535 32.7728 6.15535 32.2613 6.11795C31.7498 6.08055 30.728 6.00576 30.2165 5.94665C29.7063 5.88633 29.7063 5.8417 29.7545 5.5003C29.8028 5.15891 29.8993 4.52075 29.9475 4.19022C29.9982 3.86089 30.0006 3.84038 30.0103 3.82952ZM7.53854 14.5901C7.33864 14.6529 7.13044 14.6855 6.92089 14.6866C6.46128 14.6806 6.04027 14.537 5.66147 14.2583C5.28148 13.9797 4.99799 13.3898 4.80618 12.485C4.35832 13.1504 3.96691 13.8522 3.63603 14.5828C3.30304 15.3006 3.04278 16.0498 2.85914 16.8194C2.69026 17.5456 2.62873 18.1946 2.67578 18.7652C2.72403 19.3358 2.92911 19.7315 3.29222 19.9547C2.84115 20.0383 2.37625 20.0059 1.94112 19.8606C1.50525 19.7224 1.11114 19.4769 0.795095 19.1464C0.479034 18.8159 0.248623 18.4045 0.105068 17.9111C-0.0396925 17.4165 -0.0348671 16.8544 0.119544 16.2198C0.273956 15.5865 0.510399 14.917 0.831286 14.2137C1.15217 13.508 1.50201 12.8131 1.8808 12.1267C2.2608 11.4391 2.6408 10.7756 3.02441 10.1351C3.40803 9.49329 3.74942 8.90822 4.0498 8.37743C4.11374 6.99858 4.14269 5.54735 4.32002 4.18177C4.44066 3.25048 4.66986 2.30953 4.93526 1.4096C4.9811 1.25881 5.04986 1.02357 5.12103 0.878811C5.24287 0.685797 5.46846 0.562748 5.79658 0.512081C6.12712 0.461416 6.46007 0.467447 6.79905 0.532589C7.10747 0.58478 7.40333 0.69445 7.67124 0.85589C7.85702 0.976524 8.03073 1.14903 7.99213 1.39271C7.96438 1.52782 7.90286 1.70636 7.86425 1.8463C7.64952 2.61835 7.43721 3.4266 7.28038 4.21314C7.26568 4.29031 7.25361 4.36796 7.24419 4.44596L7.24057 4.47371L7.22248 4.66552C7.40826 4.41942 7.67848 4.06958 8.03073 3.616C8.77446 2.6692 9.57408 1.76766 10.4253 0.916208C10.8294 0.514498 11.1612 0.234625 11.4242 0.0741806C11.6449 -0.0355949 11.9103 -0.0235329 12.2203 0.110371C12.5304 0.246687 12.8054 0.442116 13.0455 0.697861C13.2653 0.923803 13.4393 1.19005 13.5582 1.48198C13.6607 1.74979 13.6269 1.95849 13.4556 2.11169C12.9865 2.50599 12.5322 2.91764 12.0937 3.34578C10.8282 4.5691 9.64731 5.87697 8.5591 7.26035C7.9873 7.98537 7.54337 8.64885 7.2261 9.25082C7.17664 10.3112 7.24299 11.041 7.42515 11.4391C7.60851 11.8372 7.86305 12.0001 8.18997 11.9277C8.51809 11.8541 8.89326 11.5984 9.31548 11.1617C9.64119 10.8263 9.97052 10.4427 10.3071 10.012L10.2866 10.1266C10.248 10.3365 10.2033 10.585 10.166 10.8046C10.0947 11.222 10.0335 11.6412 9.98259 12.0616C9.94759 12.3406 9.91662 12.6201 9.8897 12.9C9.79319 12.9941 9.63516 13.1509 9.46024 13.3102C9.26089 13.4942 9.05275 13.6685 8.83656 13.8325C8.59424 14.0184 8.33634 14.1831 8.06571 14.3247C7.87028 14.4248 7.67124 14.5032 7.53854 14.5901Z" fill="#262626"/>
</svg>