<svg xmlns="http://www.w3.org/2000/svg" width="40" height="40" viewBox="0 0 40 40" fill="none">
  <rect width="40" height="40" rx="20" fill="#262626"/>
  <path fill-rule="evenodd" clip-rule="evenodd" d="M11 13.4C11 10.9699 12.9699 9 15.4 9H24.2C26.63 9 28.6 10.9699 28.6 13.4V26.6C28.6 29.03 26.63 31 24.2 31H15.4C12.9699 31 11 29.03 11 26.6V13.4ZM15.4 11.2C14.185 11.2 13.2 12.185 13.2 13.4V26.6C13.2 27.8151 14.185 28.8 15.4 28.8H24.2C25.4151 28.8 26.4 27.8151 26.4 26.6V13.4C26.4 12.185 25.4151 11.2 24.2 11.2H15.4Z" fill="#F2E2C4"/>
  <path fill-rule="evenodd" clip-rule="evenodd" d="M15.4 9H15.5222C16.889 9 18.0375 9.93484 18.3632 11.2H21.2368C21.5625 9.93484 22.7109 9 24.0778 9H24.2V11.2H24.0778C23.6728 11.2 23.3444 11.5283 23.3444 11.9333C23.3444 12.7434 22.6878 13.4 21.8778 13.4H17.7222C16.9122 13.4 16.2556 12.7434 16.2556 11.9333C16.2556 11.5283 15.9272 11.2 15.5222 11.2H15.4V9Z" fill="#F2E2C4"/>
  <path fill-rule="evenodd" clip-rule="evenodd" d="M23.8523 18.0976C24.2956 18.513 24.318 19.2091 23.9024 19.6523L19.7774 24.0523C19.3834 24.4727 18.7318 24.5177 18.2836 24.1556L15.8086 22.1556C15.3361 21.7738 15.2626 21.0812 15.6444 20.6086C16.0263 20.1361 16.7189 20.0626 17.1914 20.4444L18.8715 21.8021L22.2975 18.1477C22.713 17.7045 23.4091 17.682 23.8523 18.0976Z" fill="#F2E2C4"/>
</svg>