<svg xmlns="http://www.w3.org/2000/svg" width="40" height="40" viewBox="0 0 40 40" fill="none">
  <rect width="40" height="40" rx="20" fill="#262626"/>
  <path d="M19.8 20V11.75C19.8 11.3124 19.6262 10.8927 19.3167 10.5833C19.0073 10.2738 18.5876 10.1 18.15 10.1C17.7124 10.1 17.2927 10.2738 16.9833 10.5833C16.6738 10.8927 16.5 11.3124 16.5 11.75V21.1L14.8829 19.483C14.559 19.1595 14.1363 18.9534 13.6819 18.8976C13.2275 18.8418 12.7675 18.9395 12.3749 19.175C12.0064 19.396 11.7386 19.752 11.6285 20.1674C11.5183 20.5827 11.5746 21.0247 11.7853 21.3992C13.8522 25.0732 15.0567 27.1731 15.3999 27.7L15.6155 28.03C16.2167 28.9429 17.0352 29.6921 17.9975 30.2105C18.9597 30.7289 20.0357 31.0002 21.1287 31H20.8999H23.0999C24.8504 31 26.5291 30.3046 27.7668 29.0669C29.0046 27.8292 29.6999 26.1504 29.6999 24.4V19.45C29.6999 19.0124 29.5261 18.5927 29.2167 18.2833C28.9072 17.9738 28.4875 17.8 28.0499 17.8C27.6123 17.8 27.1926 17.9738 26.8832 18.2833C26.5738 18.5927 26.3999 19.0124 26.3999 19.45M19.8 19.45V17.25C19.8 16.8124 19.9738 16.3927 20.2833 16.0833C20.5927 15.7738 21.0124 15.6 21.45 15.6C21.8876 15.6 22.3073 15.7738 22.6167 16.0833C22.9262 16.3927 23.1 16.8124 23.1 17.25V20M23.1 18.35C23.1 17.9124 23.2738 17.4927 23.5833 17.1833C23.8927 16.8738 24.3124 16.7 24.75 16.7C25.1876 16.7 25.6073 16.8738 25.9167 17.1833C26.2262 17.4927 26.4 17.9124 26.4 18.35V20M13.2 10.1L12.1 9M12.1 14.5H11M23.1 10.1L24.2 9M24.2 13.4H25.3" stroke="#F2E2C4" stroke-width="2" stroke-linecap="round" stroke-linejoin="round"/>
</svg>