<svg xmlns="http://www.w3.org/2000/svg" width="20" height="20" viewBox="0 0 20 20" fill="none">
  <path d="M13.4501 14.5212L10.4394 11.5104C10.3293 11.4004 10.1993 11.3804 10.1293 11.3804C10.0593 11.3804 9.92924 11.4004 9.81922 11.5104L6.79842 14.5312C6.45833 14.8712 5.92819 15.4215 4.15771 15.4215L7.8687 19.1224C8.43136 19.6844 9.19404 20 9.98926 20C10.7845 20 11.5472 19.6844 12.1098 19.1224L15.8308 15.4115C14.9205 15.4115 14.1604 15.2314 13.4501 14.5212ZM6.79842 5.4688L9.81922 8.48961C9.89923 8.56963 10.0193 8.61964 10.1293 8.61964C10.2393 8.61964 10.3594 8.56963 10.4394 8.48961L13.4301 5.49882C14.1404 4.75862 14.9506 4.58858 15.8608 4.58858L12.1398 0.877589C11.5772 0.315643 10.8145 0 10.0193 0C9.22406 0 8.46136 0.315643 7.89871 0.877589L4.18773 4.57857C5.94819 4.57857 6.48833 5.15873 6.79842 5.4688Z" fill="#999999"/>
  <path d="M19.1124 7.84971L16.8618 5.5891H15.6015C15.0614 5.5891 14.5213 5.80915 14.1511 6.19927L11.1503 9.20006C10.8702 9.48013 10.5001 9.62017 10.13 9.62017C9.74893 9.61481 9.38416 9.46459 9.10977 9.20006L6.08897 6.16925C5.70887 5.78915 5.18873 5.56909 4.63859 5.56909H3.1682L0.877593 7.86971C0.315641 8.43236 0 9.19506 0 9.99027C0 10.7855 0.315641 11.5482 0.877593 12.1108L3.1682 14.4114H4.64859C5.18873 14.4114 5.70887 14.1914 6.09898 13.8113L9.11977 10.7905C9.39984 10.5104 9.76994 10.3704 10.14 10.3704C10.5101 10.3704 10.8802 10.5104 11.1603 10.7905L14.1711 13.8013C14.5513 14.1814 15.0714 14.4014 15.6215 14.4014H16.8819L19.1324 12.1408C19.6968 11.5681 20.0114 10.7952 20.0076 9.99115C20.0039 9.18708 19.682 8.41719 19.1124 7.84971Z" fill="#999999"/>
</svg>