<svg xmlns="http://www.w3.org/2000/svg" width="15" height="15" viewBox="0 0 15 15" fill="none">
  <path d="M1.40625 1.74286V13.2565C1.40633 13.2815 1.41378 13.3059 1.42767 13.3267C1.44156 13.3474 1.46127 13.3636 1.48433 13.3732C1.50738 13.3828 1.53277 13.3854 1.55729 13.3807C1.58181 13.3759 1.60438 13.364 1.62217 13.3465L7.61719 7.49999L1.62217 1.65292C1.60438 1.63538 1.58181 1.62348 1.55729 1.61872C1.53277 1.61396 1.50738 1.61654 1.48433 1.62615C1.46127 1.63575 1.44156 1.65195 1.42767 1.67271C1.41378 1.69348 1.40633 1.71788 1.40625 1.74286Z" fill="#F2E2C4"/>
  <path d="M10.1307 5.09768L2.61373 0.956276L2.60904 0.95364C2.47955 0.883327 2.3565 1.05852 2.46255 1.16048L8.35504 6.79485L10.1307 5.09768Z" fill="#F2E2C4"/>
  <path d="M2.46339 13.8396C2.35675 13.9415 2.47979 14.1167 2.60987 14.0464L2.61456 14.0438L10.131 9.90234L8.35528 8.20459L2.46339 13.8396Z" fill="#F2E2C4"/>
  <path d="M13.1656 6.76757L11.0665 5.61151L9.09277 7.49999L11.0665 9.38759L13.1656 8.23241C13.7366 7.91688 13.7366 7.08309 13.1656 6.76757Z" fill="#F2E2C4"/>
</svg>