<svg xmlns="http://www.w3.org/2000/svg" width="15" height="15" viewBox="0 0 15 15" fill="none">
  <path d="M1.40625 1.74286V13.2565C1.40633 13.2815 1.41378 13.3059 1.42767 13.3267C1.44156 13.3474 1.46127 13.3636 1.48433 13.3732C1.50738 13.3828 1.53277 13.3854 1.55729 13.3807C1.58181 13.3759 1.60438 13.364 1.62217 13.3465L7.61719 7.49999L1.62217 1.65292C1.60438 1.63538 1.58181 1.62348 1.55729 1.61872C1.53277 1.61396 1.50738 1.61654 1.48433 1.62615C1.46127 1.63575 1.44156 1.65195 1.42767 1.67271C1.41378 1.69348 1.40633 1.71788 1.40625 1.74286Z" fill="#262626"/>
  <path d="M10.1308 5.09765L2.61385 0.956246L2.60916 0.953609C2.47967 0.883297 2.35662 1.05849 2.46268 1.16045L8.35516 6.79482L10.1308 5.09765Z" fill="#262626"/>
  <path d="M2.46326 13.8396C2.35662 13.9415 2.47967 14.1167 2.60975 14.0464L2.61444 14.0438L10.1308 9.90234L8.35516 8.20459L2.46326 13.8396Z" fill="#262626"/>
  <path d="M13.1654 6.76757L11.0663 5.61151L9.09253 7.49999L11.0663 9.38759L13.1654 8.23241C13.7364 7.91688 13.7364 7.08309 13.1654 6.76757Z" fill="#262626"/>
</svg>