<svg xmlns="http://www.w3.org/2000/svg" width="40" height="40" viewBox="0 0 40 40" fill="none">
  <rect width="40" height="40" rx="20" fill="#262626"/>
  <path d="M19.9843 9C22.8392 11.5258 26.5653 12.8409 30.3732 12.6667C30.9276 14.5526 31.0972 16.5307 30.872 18.4834C30.6468 20.4362 30.0313 22.3238 29.0622 24.034C28.0931 25.7442 26.7901 27.2421 25.2306 28.4388C23.6711 29.6355 21.887 30.5065 19.9843 31C18.0815 30.5065 16.2974 29.6355 14.7379 28.4388C13.1785 27.2421 11.8755 25.7442 10.9063 24.034C9.93722 22.3238 9.32178 20.4362 9.09657 18.4834C8.87137 16.5307 9.041 14.5526 9.59539 12.6667C13.4033 12.8409 17.1294 11.5258 19.9843 9Z" stroke="#F2E2C4" stroke-width="2.5" stroke-linecap="round" stroke-linejoin="round"/>
</svg>