<svg xmlns="http://www.w3.org/2000/svg" width="21" height="20" viewBox="0 0 21 20" fill="none">
  <path fill-rule="evenodd" clip-rule="evenodd" d="M20.63 20V12.0491C20.63 11.3075 20.5006 10.6854 20.2531 10.0228C20.2384 9.98303 20.2754 9.92656 20.3037 9.84101C20.4478 9.40473 20.4916 9.24082 20.5683 8.78165C20.5847 8.68325 20.5901 8.59302 20.6045 8.49068C20.6185 8.38951 20.6149 8.27424 20.6279 8.1793C20.6287 8.1736 20.6294 8.1536 20.63 8.12249V5.87905V5.86834V5.86381V5.54534L20.6289 5.53455C20.6177 5.43592 20.6185 5.3256 20.6055 5.22326C20.5623 4.88505 20.5446 4.7232 20.4574 4.37483C20.393 4.11698 20.31 3.8708 20.2134 3.62948C20.1811 3.54847 20.1472 3.47626 20.1137 3.3946L20.0066 3.17438C19.9851 3.13882 19.9703 3.10554 19.9508 3.06661C19.9391 3.04338 19.9329 3.03581 19.9211 3.01456L19.83 2.85279C19.671 2.58992 19.5505 2.41456 19.3551 2.16747L19.2817 2.07739C19.2565 2.0475 19.2291 2.02092 19.2052 1.99012C19.0972 1.85099 18.8678 1.6338 18.7157 1.49201C18.7374 1.69874 18.6727 1.86917 18.5217 2.00336C18.0967 2.35087 17.5362 2.85877 16.84 3.52689C16.1439 4.19493 15.4189 4.94348 14.6653 5.77239C13.9117 6.6013 13.1822 7.46379 12.4766 8.35956C11.7711 9.25547 11.2223 10.0744 10.8302 10.8165C10.7693 12.1267 10.8516 13.0277 11.077 13.5197C11.3025 14.0116 11.6171 14.2123 12.021 14.1218C12.4249 14.0314 12.888 13.7161 13.4104 13.176C13.8108 12.762 14.2187 12.289 14.6344 11.7571L14.6083 11.8985C14.5609 12.1581 14.5062 12.4659 14.4606 12.7359C14.415 13.006 14.3784 13.2384 14.341 13.4965C14.3034 13.7545 14.265 14.0382 14.2333 14.2881C14.2017 14.538 14.177 14.7539 14.1552 14.9592C14.1423 15.081 14.1304 15.1991 14.1188 15.3232C14.0009 15.4396 13.8048 15.6317 13.5885 15.8299C13.3592 16.04 13.1072 16.2569 12.8183 16.4746C12.5294 16.6924 12.2036 16.911 11.8676 17.0816C11.6263 17.2042 11.3799 17.302 11.2161 17.4086C10.9534 17.4893 10.6994 17.5296 10.4539 17.5296C9.88569 17.5203 9.36734 17.3437 8.89887 16.9997C8.4304 16.6557 8.07868 15.9262 7.84381 14.8109C7.31317 15.5928 6.83196 16.4559 6.39998 17.3997C5.99498 18.2849 5.6879 19.1495 5.47903 19.9934C5.56705 19.9977 5.65473 20 5.74141 20L8.29219 19.9925C8.32569 19.9908 8.33311 19.9857 8.37411 19.9851C8.4202 19.9845 8.47999 19.9751 8.52354 19.9709C9.1397 19.9111 9.66423 19.7572 10.23 19.5209C10.2725 19.5031 10.2978 19.4754 10.3494 19.4967L10.468 19.5494C11.0765 19.8044 11.8059 19.9999 12.665 19.9999C15.3201 19.9999 17.975 19.9999 20.63 19.9999L20.63 20ZM15.3223 0.0176912C15.1876 0.00674687 15.0507 0.000309017 14.8995 0H14.8888L12.3378 0.00749366L12.1066 0.0290734C11.7784 0.0608506 11.449 0.128036 11.133 0.21572C10.8566 0.292382 10.6608 0.370099 10.3999 0.479183C10.2842 0.527672 10.331 0.52126 10.162 0.450624C9.55306 0.195402 8.82442 2.57514e-05 7.96489 2.57514e-05H2.57514e-05V7.95091C2.57514e-05 8.69255 0.129607 9.31455 0.376846 9.97723C0.391576 10.017 0.354623 10.0734 0.326374 10.1589C0.174801 10.6181 0.109032 10.8579 0.0424898 11.3626C0.0367988 11.4048 0.032524 11.4589 0.0255197 11.5093C0.0114336 11.6105 0.0150646 11.7258 0.00213737 11.8205C0.00123607 11.8264 0.000643786 11.8462 0 11.8774V14.1209V14.1316V14.1362V14.4546L0.00115881 14.4652C0.0121804 14.5641 0.0114594 14.6745 0.0244639 14.7767C0.0368245 14.8739 0.0470221 14.9739 0.0616747 15.0742C0.0892544 15.2616 0.128371 15.448 0.172586 15.6251C0.237042 15.883 0.319961 16.1291 0.416529 16.3705L0.570317 16.7149C0.590738 16.7557 0.600034 16.7876 0.623339 16.8255C0.644996 16.8612 0.659726 16.8944 0.679168 16.9334L0.740585 17.0429C0.762731 17.0803 0.777719 17.1102 0.799942 17.1473C0.960992 17.4133 1.14663 17.6855 1.34842 17.9226C1.37361 17.9525 1.40103 17.9791 1.42483 18.0099C1.44162 18.0315 1.44476 18.0345 1.46343 18.053C1.48187 18.0716 1.48434 18.0794 1.50056 18.0977C1.51398 18.1131 1.52657 18.1238 1.5414 18.1386C1.56141 18.1584 1.56504 18.1673 1.58232 18.187C1.61871 18.2284 1.8694 18.4742 1.92309 18.5156L2.0983 18.6677C2.14226 18.7025 2.18787 18.7388 2.23481 18.7755C2.41396 18.1883 2.64771 17.5778 2.93595 16.9439C3.33146 16.074 3.76336 15.2151 4.23183 14.3674C4.70023 13.5197 5.17091 12.7002 5.64389 11.9088C6.11697 11.1175 6.53898 10.3943 6.90998 9.73916C7.00137 7.77376 7.09629 6.19111 7.19477 4.99122C7.29332 3.79133 7.45295 2.98359 7.67362 2.56796C7.82387 2.32847 8.10214 2.17754 8.5083 2.1153C8.91453 2.05306 9.32668 2.0612 9.74467 2.13984C10.1626 2.21846 10.5212 2.35167 10.8206 2.53955C11.1201 2.72736 11.2521 2.95039 11.2169 3.20865C11.17 3.32613 11.1271 3.49277 11.0884 3.70882C11.0497 3.92485 11.0039 4.14155 10.9511 4.35866C10.8983 4.57593 10.8643 4.76316 10.849 4.92048C10.8338 5.07782 10.8262 5.15644 10.8262 5.15644C11.0563 4.85355 11.3891 4.42147 11.8246 3.86014C12.26 3.29896 12.7373 2.72718 13.2562 2.14486C13.7751 1.56244 14.2833 1.02352 14.7811 0.528033C14.9747 0.335387 15.155 0.165195 15.3224 0.0176655L15.3223 0.0176912Z" fill="#999999"/>
</svg>