<svg xmlns="http://www.w3.org/2000/svg" width="46" height="25" viewBox="0 0 46 25" fill="none">
  <path d="M24.1966 19.8854C23.224 19.6064 22.458 19.2219 21.9001 18.7334C21.3421 18.2433 21.0345 17.4516 20.9742 16.3599C20.6151 17.1476 20.2481 17.9318 19.8734 18.7122C19.5266 19.436 18.9883 20.3197 18.2584 21.3662C18.0021 21.7552 17.5949 22.0236 17.04 22.1714C16.4862 22.3186 15.9096 22.3595 15.3406 22.2921C14.7846 22.2322 14.2465 22.0603 13.7588 21.7869C13.2808 21.5155 12.9897 21.1566 12.8887 20.7087C12.7786 20.2051 12.7304 19.5461 12.7439 18.7318C12.7891 16.8637 12.9756 15.0016 13.3019 13.1616C13.4768 12.1754 13.6623 11.254 13.8568 10.396C14.0513 9.53802 14.2458 8.8112 14.4388 8.21406C14.6334 7.61692 14.8158 7.21883 14.9862 7.01677C15.1521 6.78756 15.4356 6.6609 15.8382 6.63979C16.2408 6.61868 16.6329 6.66391 17.0144 6.7755C17.3944 6.88859 17.708 7.04843 17.9598 7.25502C18.2102 7.4601 18.2961 7.67121 18.2147 7.88835C18.0518 8.31962 17.8498 9.04191 17.607 10.0522C17.3503 11.1278 17.119 12.2093 16.9133 13.2958C16.7021 14.3939 16.5176 15.497 16.3599 16.6042C16.2091 17.6582 16.1594 18.4272 16.2091 18.9113C16.3464 18.8615 16.5454 18.6112 16.8063 18.1634C17.0672 17.7155 17.3642 17.1229 17.6945 16.3885C18.0262 15.6542 18.3745 14.8067 18.741 13.8492C19.1089 12.8901 19.4904 11.8798 19.884 10.8152C20.276 9.75214 20.653 8.66795 21.0119 7.56716C21.3708 6.46637 21.6965 5.38368 21.989 4.3206C22.0991 3.92552 22.3735 3.6933 22.8108 3.62243C23.2481 3.55155 23.696 3.58171 24.1529 3.71139C24.6083 3.83957 24.9973 4.04615 25.317 4.32814C25.6382 4.60861 25.7634 4.88607 25.691 5.15749C24.8888 8.13565 24.3595 11.5978 24.2735 14.68C24.2328 16.1744 24.3323 17.6838 25.0365 19.0334L25.0561 19.0696C25.1919 19.3079 25.3336 19.4587 25.5342 19.6411C25.1059 19.9231 24.6973 20.0106 24.1966 19.8854ZM31.1421 16.3056C31.7152 15.2923 32.0363 14.0437 32.2203 12.9882L32.2278 12.9505C32.3621 12.1678 32.4616 11.3792 32.5822 10.5951L32.727 9.70389C32.7722 9.44453 32.9652 9.29675 33.2698 9.25151C33.5759 9.20778 33.8986 9.23191 34.2394 9.32389C34.5802 9.41437 34.8848 9.56215 35.1562 9.76572C35.4277 9.96778 35.5528 10.1729 35.5362 10.3764C35.4581 11.1352 35.3195 11.8866 35.1216 12.6232C34.9054 13.4576 34.661 14.2845 34.3887 15.1023C34.0027 16.271 33.534 17.4109 32.9863 18.5132C32.7961 18.8987 32.5054 19.2259 32.1449 19.4602C32.105 19.4274 32.0657 19.3937 32.0273 19.3591C31.9294 19.2721 31.8432 19.1728 31.7709 19.0636C31.68 18.9297 31.6012 18.7879 31.5357 18.6399C31.451 18.4477 31.382 18.249 31.3291 18.0457C31.2793 17.8472 31.242 17.6458 31.2175 17.4426C31.1681 17.0656 31.143 16.6858 31.1421 16.3056Z" fill="#F2E2C4"/>
  <path d="M27.4443 4.24884C27.7112 3.8236 27.9344 3.73614 28.4259 3.84019C28.7426 3.91106 29.0186 4.04527 29.3458 4.11161C29.6474 4.17344 30.6652 4.37249 30.8266 4.60772L30.8341 4.62431C30.8612 4.76002 30.6682 4.99074 30.5913 5.10835C29.1422 7.35215 28.5134 10.5339 28.248 13.1637C28.1274 14.3896 28.0776 15.8176 28.4531 17.0014C28.619 17.5171 28.9402 17.8232 29.5071 17.8066C29.872 17.796 30.1013 17.5955 30.3516 17.3542L30.3817 17.3256C30.427 17.2849 30.4662 17.2411 30.5069 17.1959L30.5114 17.2758C30.5205 17.4145 30.528 17.5065 30.5401 17.6015C30.5521 17.6995 30.5657 17.7991 30.5959 17.9423C30.7324 18.596 30.9678 19.225 31.294 19.8076L31.3197 19.8468C29.7454 20.3655 27.9193 20.1786 26.5425 19.2286C25.2352 18.3238 25.0889 16.9064 25.0467 15.4407C24.9803 12.6917 25.6257 9.1496 26.4611 6.52882C26.7129 5.74319 27.016 4.95455 27.4443 4.24884ZM33.4549 7.89199C33.4549 8.11063 33.5499 8.30365 33.7369 8.47103C33.9254 8.63841 34.1425 8.76809 34.3898 8.85706C34.6356 8.94753 34.8784 8.98523 35.1196 8.97468C35.3594 8.96412 35.5222 8.88118 35.6097 8.72888C35.759 8.45746 35.8947 8.15889 36.0184 7.82865C36.3108 7.05454 36.5329 6.25562 36.6818 5.44161C36.6969 5.20637 36.5657 4.97867 36.2928 4.76153C36.017 4.54173 35.6994 4.38014 35.3594 4.28653C35.0415 4.19091 34.707 4.16317 34.3777 4.2051C34.0716 4.25034 33.9058 4.39661 33.8801 4.65145C33.8436 4.86533 33.8119 5.08002 33.7851 5.29534L33.6675 6.18954C33.6269 6.49483 33.5887 6.80045 33.5529 7.10636C33.5229 7.36806 33.4902 7.62944 33.4549 7.89048" fill="#F2E2C4"/>
  <path d="M37.5128 4.7869C37.5264 4.77484 37.5475 4.77785 37.5731 4.78238L38.9559 4.98293L39.5455 5.06738L39.55 5.04928L39.5546 5.03119L39.5576 5.01158L39.5621 4.99198L39.5666 4.97388L39.5711 4.95428L39.5757 4.93619L39.5787 4.91658L39.5832 4.89849L39.5877 4.88039L39.5907 4.86079L39.5953 4.8427L39.5998 4.8246L39.6043 4.805L39.6073 4.7869L39.6119 4.76881L39.6164 4.75071L39.6209 4.73111L39.6239 4.71301L39.6284 4.69492L39.633 4.67682L39.6375 4.65873L39.6405 4.64063L39.645 4.62254L39.6496 4.60444L39.6526 4.58635L39.6571 4.56825L39.6616 4.55167L39.6661 4.53357L39.6707 4.51547L39.6737 4.49889L39.6782 4.48079L39.6812 4.4627L39.6857 4.44611L39.6903 4.42802L39.6948 4.41143L39.6978 4.39484L39.7023 4.37675L39.7069 4.36016L39.7099 4.34206L39.7144 4.32698L39.7189 4.30889L39.7234 4.2923L39.7265 4.27722V4.27571L39.731 4.26064L39.7355 4.24254L39.7385 4.22746L39.743 4.21087L39.7476 4.19429L39.7506 4.1777L39.7551 4.16262L39.7596 4.14603L39.7642 4.13095L39.7672 4.11588L39.7717 4.09929L39.7762 4.08421L39.7792 4.06913L39.7838 4.05254L39.7868 4.03746L39.7913 4.02238L39.7958 4.00731L39.7988 3.99222L39.8034 3.97714L39.8079 3.96207C39.9134 3.57001 40.019 3.29858 40.1442 3.17342C40.2708 3.04826 40.4201 3.06787 40.6342 3.12366C40.8484 3.17945 41.1273 3.27144 41.2148 3.42072C41.3022 3.57151 41.1997 3.77659 41.064 4.13849L41.0595 4.15357L41.0534 4.16564L41.0489 4.18072L41.0444 4.1958L41.0384 4.20937L41.0338 4.22445L41.0278 4.23802L41.0233 4.2531L41.0172 4.26818L41.0127 4.28325L41.0067 4.29833L41.0007 4.31341L40.9961 4.32849L40.9901 4.34357L40.9841 4.35865L40.9795 4.37524L40.9735 4.39032L40.9675 4.40691L40.963 4.42349L40.9569 4.43857L40.9509 4.45667L40.9449 4.47174L40.9403 4.48833L40.9343 4.50492L40.9283 4.52302L40.9222 4.5381L40.9162 4.55619L40.9117 4.57278L40.9057 4.59087L40.8996 4.60746L40.8936 4.62555L40.8876 4.64214L40.8815 4.66024L40.8755 4.67682L40.871 4.69492L40.8634 4.71301L40.8589 4.73111L40.8529 4.7492L40.8468 4.7673L40.8408 4.78539L40.8348 4.80349L40.8288 4.82158L40.8212 4.83968L40.8152 4.85777L40.8107 4.87738L40.8031 4.89547L40.7986 4.91357L40.7911 4.93166L40.785 4.94976L40.779 4.96936L40.773 4.98896L40.7669 5.00706L40.7609 5.02666L40.7549 5.04476L40.7488 5.06436L40.7428 5.08246L40.7368 5.10206L40.7292 5.12166L40.7232 5.13976L40.7172 5.15936L40.7111 5.17896L40.7051 5.19857L40.6991 5.21666L40.693 5.23626L41.4018 5.34182C41.4892 4.94523 41.5767 4.56373 41.6596 4.25762C41.7682 3.86405 41.8707 3.59413 41.9959 3.46747C42.1226 3.34231 42.2718 3.36191 42.486 3.41771C42.7001 3.4735 42.9791 3.56548 43.0665 3.71477C43.154 3.86556 43.0514 4.07214 42.9157 4.43254C42.8087 4.72206 42.6805 5.11111 42.5493 5.51825C43.1977 5.62078 43.8009 5.7188 44.2653 5.80475C45.6375 6.05658 45.7732 6.18173 45.6978 6.4426C45.6209 6.70649 45.3314 7.10609 44.8082 7.61879C44.2864 8.13148 43.531 8.75426 42.501 9.98472C41.3505 11.3814 40.3032 12.8601 39.3676 14.409C38.5699 15.7661 38.2789 16.6467 38.1567 17.078C38.0331 17.5108 38.0783 17.4942 38.7704 17.5259C39.4626 17.556 40.7986 17.6374 41.4847 17.7475C42.1708 17.8576 42.204 17.9978 42.2191 18.3809C42.2341 18.7639 42.2296 19.3897 42.1768 19.738C42.1241 20.0863 42.0215 20.1587 41.3972 20.1542C40.7736 20.1393 40.1506 20.1061 39.5289 20.0547C39.5485 20.4859 39.5696 20.8961 39.5968 21.2052C39.6315 21.5897 39.6752 21.8174 39.5515 21.9381C39.4279 22.0587 39.1354 22.0738 38.9137 22.0708C38.692 22.0677 38.5427 22.0481 38.4538 21.8928C38.3648 21.739 38.3377 21.451 38.3377 21.0423C38.3377 20.7347 38.3542 20.3577 38.3754 19.9627H38.3558L37.6666 19.9024C37.6862 20.3125 37.7058 20.7031 37.733 21.0001C37.7677 21.3846 37.8114 21.6108 37.6877 21.733C37.5641 21.8536 37.27 21.8687 37.0499 21.8657C36.8282 21.8627 36.6789 21.8431 36.59 21.6877C36.501 21.5339 36.4739 21.2459 36.4739 20.8373C36.4739 20.5387 36.4889 20.1768 36.5085 19.7968C35.8993 19.738 35.3625 19.6852 35.0067 19.646C34.3115 19.5721 34.3085 19.5585 34.3281 19.2705C34.3492 18.984 34.3929 18.4231 34.5588 17.6782C34.7247 16.9348 35.0157 16.0044 35.6204 14.7392C36.2235 13.4741 37.1434 11.8742 38.0858 10.6422C39.0298 9.41171 39.9979 8.5537 40.4819 8.12394C40.966 7.69418 40.966 7.69418 40.3266 7.64744C39.6873 7.60069 38.41 7.5072 37.7707 7.43331C37.1328 7.35792 37.1328 7.30212 37.1931 6.87538C37.2535 6.44864 37.3741 5.65094 37.4344 5.23777C37.4977 4.82611 37.5008 4.80047 37.5128 4.7869ZM9.42318 18.2376C9.1733 18.3162 8.91305 18.3568 8.65112 18.3582C8.0766 18.3507 7.55033 18.1713 7.07684 17.8229C6.60185 17.4746 6.24748 16.7372 6.00772 15.6063C5.4479 16.4381 4.95863 17.3152 4.54504 18.2286C4.1288 19.1257 3.80347 20.0623 3.57393 21.0243C3.36282 21.932 3.28592 22.7433 3.34473 23.4565C3.40504 24.1698 3.66139 24.6644 4.11528 24.9434C3.55144 25.0478 2.97031 25.0073 2.4264 24.8257C1.88156 24.6531 1.38893 24.3461 0.993869 23.933C0.598793 23.5199 0.310779 23.0057 0.131335 22.3889C-0.0496156 21.7707 -0.0435839 21.068 0.149431 20.2748C0.342445 19.4831 0.637999 18.6463 1.03911 17.7671C1.44022 16.885 1.87751 16.0164 2.351 15.1584C2.826 14.2989 3.301 13.4695 3.78052 12.6688C4.26004 11.8666 4.68678 11.1353 5.06225 10.4718C5.14217 8.74822 5.17836 6.93419 5.40003 5.22722C5.55082 4.0631 5.83733 2.88692 6.16907 1.762C6.22637 1.57351 6.31232 1.27947 6.40129 1.09851C6.55359 0.857246 6.83557 0.703436 7.24573 0.640102C7.6589 0.576769 8.07509 0.584311 8.49882 0.665737C8.88433 0.730974 9.25416 0.868063 9.58905 1.06986C9.82127 1.22066 10.0384 1.43629 9.99016 1.74089C9.95547 1.90978 9.87857 2.13295 9.83032 2.30787C9.56191 3.27295 9.29651 4.28325 9.10048 5.26642C9.0821 5.36289 9.06701 5.45996 9.05524 5.55745L9.05072 5.59213L9.0281 5.8319C9.26032 5.52428 9.5981 5.08698 10.0384 4.52C10.9681 3.3365 11.9676 2.20958 13.0316 1.14526C13.5368 0.643122 13.9515 0.293282 14.2802 0.0927277C14.5562 -0.0444946 14.8879 -0.029417 15.2754 0.137962C15.663 0.308359 16.0068 0.552645 16.3069 0.872326C16.5816 1.15475 16.7992 1.48756 16.9477 1.85248C17.0759 2.18724 17.0337 2.44811 16.8196 2.63961C16.2331 3.13249 15.6652 3.64705 15.1171 4.18222C13.5353 5.71138 12.0591 7.34622 10.6989 9.07544C9.98412 9.98171 9.42921 10.8111 9.03262 11.5635C8.9708 12.889 9.05373 13.8013 9.28143 14.2989C9.51064 14.7965 9.82881 15.0001 10.2375 14.9096C10.6476 14.8176 11.1166 14.4979 11.6444 13.9521C12.0515 13.5329 12.4632 13.0534 12.8839 12.515L12.8582 12.6583C12.81 12.9207 12.7542 13.2313 12.7074 13.5057C12.6183 14.0276 12.5419 14.5515 12.4782 15.077C12.4345 15.4257 12.3958 15.7751 12.3621 16.125C12.2415 16.2426 12.044 16.4386 11.8253 16.6377C11.5761 16.8678 11.3159 17.0857 11.0457 17.2906C10.7428 17.523 10.4204 17.7289 10.0821 17.9059C9.83786 18.031 9.58905 18.129 9.42318 18.2376Z" fill="#F2E2C4"/>
</svg>